<svg xmlns="http://www.w3.org/2000/svg" viewBox="0 0 64 64" width="64" height="64">
  <!-- Zoraqians: Alien/brood, chitin, asymmetric, pulsing veins -->
  <!-- Body: Asymmetric organic blob -->
  <path d="M20,20 Q14,30 18,42 Q22,52 32,50 Q42,52 46,42 Q50,30 44,20 Q38,12 32,14 Q26,12 20,20Z" fill="#4D2659" stroke="#8CD940" stroke-width="2"/>
  <!-- Chitin plates -->
  <path d="M24,22 L28,18 L36,18 L40,22" fill="none" stroke="#3A1D42" stroke-width="2"/>
  <path d="M22,30 Q32,26 42,30" fill="none" stroke="#3A1D42" stroke-width="1.5"/>
  <!-- Pulsing vein lines -->
  <path d="M26,24 Q24,34 28,44" fill="none" stroke="#8CD940" stroke-width="1" opacity="0.6"/>
  <path d="M38,24 Q40,34 36,44" fill="none" stroke="#8CD940" stroke-width="1" opacity="0.6"/>
  <!-- Eyes: Multiple, asymmetric -->
  <circle cx="27" cy="20" r="3" fill="#8CD940"/>
  <circle cx="37" cy="18" r="2.5" fill="#8CD940"/>
  <circle cx="33" cy="23" r="1.5" fill="#8CD940" opacity="0.7"/>
  <!-- Pupils -->
  <circle cx="27" cy="20" r="1.5" fill="#1A0A20"/>
  <circle cx="37" cy="18" r="1.2" fill="#1A0A20"/>
  <!-- Legs: Asymmetric, spindly -->
  <path d="M24,48 L20,60" stroke="#4D2659" stroke-width="3" stroke-linecap="round"/>
  <path d="M36,48 L42,58" stroke="#4D2659" stroke-width="3" stroke-linecap="round"/>
  <path d="M40,46 L48,56" stroke="#4D2659" stroke-width="2" stroke-linecap="round"/>
</svg>
